<svg xmlns="http://www.w3.org/2000/svg" viewBox="0 0 32 32">
  <style>
    .tile { fill: #141B28; }
    .mark { fill: #FFFFFF; }
    @media (prefers-color-scheme: dark) {
      .tile { fill: #FFFFFF; }
      .mark { fill: #141B28; }
    }
  </style>
  <rect class="tile" width="32" height="32" rx="6"/>
  <g transform="translate(4 4) scale(0.8)">
    <path class="mark" d="M6.70312 0.630859L2.82324 4.96387L-0.000976562 8.11816H15.8604L3.07031 20.8867L1.72852 22.2266L3.07129 23.5654L5.94336 26.4297L7.2793 27.7617L8.61523 26.4297L21.4121 13.668V29.5518L24.5889 26.6143L28.8564 22.667L29.4648 22.1055V14.9092L28.4863 14.3701L24.2188 12.0146L23.4805 11.6064L24.6406 10.4492C24.8262 10.2642 25.883 9.22848 26.9072 8.22656C27.4159 7.72897 27.9126 7.24314 28.2822 6.88184C28.4669 6.70131 28.6207 6.55166 28.7275 6.44727C28.7808 6.39521 28.8231 6.35402 28.8516 6.32617L28.8916 6.28613C28.8924 6.28537 28.8939 6.2846 28.8945 6.28418V6.2832L29.4648 5.72656V0H7.26758L6.70312 0.630859Z"/>
  </g>
</svg>
